<svg width="12" height="12" viewBox="0 0 12 12" fill="none" xmlns="http://www.w3.org/2000/svg">
<path d="M6.1912 5.55275V7.40573H9.25821C9.13042 8.20443 8.33172 9.73794 6.1912 9.73794C4.33822 9.73794 2.83666 8.20443 2.83666 6.3195C2.83666 4.43457 4.33822 2.90106 6.1912 2.90106C7.24549 2.90106 7.94834 3.34834 8.33172 3.73171L9.80133 2.326C8.87484 1.4634 7.66081 0.920288 6.1912 0.920288C3.22004 0.920288 0.791992 3.31639 0.791992 6.3195C0.791992 9.29066 3.18809 11.7187 6.1912 11.7187C9.29016 11.7187 11.3668 9.54625 11.3668 6.44729C11.3668 6.09586 11.3348 5.80833 11.2709 5.55275H6.1912Z" fill="#5D30DD"/>
</svg>
