<svg width="10" height="13" viewBox="0 0 10 13" fill="none" xmlns="http://www.w3.org/2000/svg">
<path d="M4.9599 7.17475L4.95791 7.00498L4.95593 7.17475C4.79581 7.17288 4.63897 7.2201 4.5065 7.31007C4.37404 7.40003 4.27232 7.52842 4.21503 7.67795C4.15774 7.82747 4.14763 7.99096 4.18607 8.14641C4.2245 8.30185 4.30964 8.44179 4.43001 8.54738L4.48783 8.5981V9.56443C4.48783 9.6891 4.53736 9.80867 4.62552 9.89683C4.71367 9.98498 4.83324 10.0345 4.95791 10.0345C5.08259 10.0345 5.20215 9.98498 5.29031 9.89683C5.37847 9.80867 5.42799 9.6891 5.42799 9.56443V8.5981L5.48581 8.54738C5.60619 8.44179 5.69132 8.30185 5.72976 8.14641C5.76819 7.99096 5.75809 7.82747 5.7008 7.67795C5.64351 7.52842 5.54178 7.40003 5.40932 7.31007C5.27686 7.2201 5.12001 7.17288 4.9599 7.17475Z" fill="#BDBDBD"/>
<path fill-rule="evenodd" clip-rule="evenodd" d="M2.81571 1.02359C3.38386 0.455443 4.15443 0.136261 4.95791 0.136261C5.76139 0.136261 6.53197 0.455443 7.10012 1.02359C7.66826 1.59174 7.98745 2.36231 7.98745 3.16579V4.61531H8.15723C8.62131 4.61531 9.06638 4.79966 9.39453 5.12781C9.72268 5.45596 9.90704 5.90103 9.90704 6.36511V10.8442C9.90704 11.3082 9.72268 11.7533 9.39453 12.0815C9.06638 12.4096 8.62131 12.594 8.15723 12.594H1.75859C1.29452 12.594 0.849447 12.4096 0.521295 12.0815C0.193143 11.7533 0.00878906 11.3082 0.00878906 10.8442V6.36511C0.00878906 5.90103 0.193143 5.45596 0.521295 5.12781C0.849447 4.79966 1.29452 4.61531 1.75859 4.61531H1.92838V3.16579C1.92838 2.36231 2.24756 1.59174 2.81571 1.02359ZM4.95791 1.07642C4.40378 1.07642 3.87233 1.29655 3.4805 1.68838C3.08867 2.08022 2.86854 2.61166 2.86854 3.16579V4.61531H7.04729V3.16579C7.04729 2.61166 6.82716 2.08022 6.43532 1.68838C6.04349 1.29655 5.51205 1.07642 4.95791 1.07642ZM1.75859 5.55546C1.54386 5.55546 1.33793 5.64077 1.18609 5.7926C1.03425 5.94444 0.948946 6.15038 0.948946 6.36511V10.8442C0.948946 11.0589 1.03425 11.2648 1.18609 11.4167C1.33793 11.5685 1.54386 11.6538 1.75859 11.6538H8.15723C8.37196 11.6538 8.5779 11.5685 8.72974 11.4167C8.88158 11.2648 8.96688 11.0589 8.96688 10.8442V6.36511C8.96688 6.15038 8.88158 5.94444 8.72974 5.7926C8.5779 5.64077 8.37196 5.55546 8.15723 5.55546H1.75859Z" fill="#BDBDBD"/>
</svg>
