<svg width="13" height="11" viewBox="0 0 13 11" fill="none" xmlns="http://www.w3.org/2000/svg">
<path d="M12.3821 2.11379C11.9273 2.30998 11.4323 2.45117 10.9225 2.50617C11.4518 2.19172 11.8482 1.69495 12.0373 1.10905C11.5406 1.40451 10.9965 1.61169 10.4291 1.72141C10.1919 1.46788 9.90513 1.26592 9.58652 1.12809C9.2679 0.990261 8.92432 0.919527 8.57717 0.920294C7.17263 0.920294 6.04305 2.05879 6.04305 3.45591C6.04305 3.6521 6.06683 3.84829 6.10547 4.03705C4.00237 3.92706 2.12667 2.92233 0.87967 1.38402C0.652454 1.77211 0.533384 2.214 0.53485 2.66371C0.53485 3.5436 0.982224 4.31944 1.66443 4.77573C1.2624 4.7599 0.869775 4.6494 0.518501 4.45321V4.48442C0.518501 5.71656 1.38947 6.73764 2.55026 6.97247C2.33231 7.02909 2.1081 7.05805 1.88292 7.05868C1.71794 7.05868 1.56188 7.04233 1.40433 7.02003C1.72537 8.02477 2.66025 8.75454 3.77348 8.77832C2.90251 9.46052 1.81157 9.86182 0.627001 9.86182C0.414461 9.86182 0.21827 9.85439 0.0146484 9.83061C1.13828 10.5515 2.47149 10.9676 3.90725 10.9676C8.56826 10.9676 11.1187 7.10624 11.1187 3.75465C11.1187 3.64467 11.1187 3.53468 11.1113 3.4247C11.6047 3.06353 12.0373 2.61615 12.3821 2.11379Z" fill="#5D30DD"/>
</svg>
