<svg width="12" height="13" viewBox="0 0 12 13" fill="none" xmlns="http://www.w3.org/2000/svg">
<path d="M7.58594 7.22157C8.60988 6.56625 9.2652 5.41944 9.2652 4.10879C9.2652 2.06091 7.58594 0.381653 5.53806 0.381653C3.49018 0.381653 1.81092 2.06091 1.81092 4.10879C1.81092 5.41944 2.46624 6.56625 3.49018 7.22157C1.4423 8.04072 0.00878906 10.0476 0.00878906 12.3822C0.00878906 12.6689 0.254535 12.8737 0.50028 12.8737C0.786983 12.8737 0.991771 12.628 0.991771 12.3822C0.991771 9.88381 3.03965 7.83593 5.53806 7.83593C8.03648 7.83593 10.0844 9.88381 10.0844 12.3822C10.0844 12.6689 10.3301 12.8737 10.5758 12.8737C10.8626 12.8737 11.0673 12.628 11.0673 12.3822C11.1083 10.0067 9.63382 8.04072 7.58594 7.22157ZM5.53806 6.81199C4.02263 6.81199 2.83486 5.58327 2.83486 4.10879C2.83486 2.59336 4.06359 1.40559 5.53806 1.40559C7.05349 1.40559 8.24127 2.63432 8.24127 4.10879C8.24127 5.58327 7.05349 6.81199 5.53806 6.81199Z" fill="#BDBDBD"/>
</svg>
